# xmcd
#
# Track frame offsets:
#	150
#	36570
#	56631
#	79319
#	101233
#	134702
#	175181
#	214395
#
# Disc length: 3440 seconds
#
# Revision: 0
# Processed by: cddbd v1.5.2PL0 Copyright (c) Steve Scherf et al.
# Submitted via: audiograbber 1.83.01
#
DISCID=7f0d6e08
DTITLE=Mark Knopfler - Live in Sofia 2013
DYEAR=2013
DGENRE=Folk-Rock
TTITLE0=What It Is
TTITLE1=Corned Beef City
TTITLE2=Yon Two Crows
TTITLE3=Seattle
TTITLE4=Privateering
TTITLE5=Father And Son&Hill Farmer's Blues
TTITLE6=Romao and Juliet
TTITLE7=Sultans Of Swing
EXTD=
EXTT0=
EXTT1=
EXTT2=
EXTT3=
EXTT4=
EXTT5=
EXTT6=
EXTT7=
PLAYORDER=
